<?xml version="1.0" encoding="UTF-8"?>
<svg width="1242" height="2436" viewBox="0 0 1242 2436" fill="none" xmlns="http://www.w3.org/2000/svg">
  <!-- Background -->
  <rect width="1242" height="2436" fill="#3B82F6"/>
  
  <!-- Logo Group (centered) -->
  <g transform="translate(421, 968) scale(3.5)">
    <!-- Shopping Bag -->
    <path d="M140 70H60C57.2386 70 55 72.2386 55 75V145C55 147.761 57.2386 150 60 150H140C142.761 150 145 147.761 145 145V75C145 72.2386 142.761 70 140 70Z" fill="white"/>
    <path d="M85 70V60C85 52.268 91.268 46 99 46C106.732 46 113 52.268 113 60V70" stroke="white" stroke-width="4"/>
    
    <!-- Checkmark -->
    <path d="M75 100L90 115L125 80" stroke="#3B82F6" stroke-width="8" stroke-linecap="round" stroke-linejoin="round"/>
  </g>
  
  <!-- App Name -->
  <text x="621" y="1500" text-anchor="middle" fill="white" font-family="Arial" font-size="72" font-weight="bold">
    Smart Asset
  </text>
  <text x="621" y="1600" text-anchor="middle" fill="white" font-family="Arial" font-size="36">
    Inventory Management
  </text>
</svg> 